# xmcd CD database file
#
# Track frame offsets:
#	150
#	15503
#	38173
#	53877
#	67421
#	88066
#	100044
#	111617
#	126835
#	145671
#	162131
#	178024
#	196563
#	210296
#	227836
#	249210
#	267020
#	291472
#	312117
#	330089
#
# Disc length: 4593 seconds
#
# Revision: 0
# Processed by: cddbd v1.5PL3 Copyright (c) Steve Scherf et al.
# Submitted via: CDex 1.51
#
DISCID=1111ef14
DTITLE=eric clapton - me and mr.johnson
DYEAR=1900
DGENRE=Blues
TTITLE0=when you got a good friend
TTITLE1=little quwwn of spades
TTITLE2=they are rd hot
TTITLE3=me and the devil blues
TTITLE4=traveling riverside blues
TTITLE5=last fair deal gone
TTITLE6=stop breaking down blues
TTITLE7=milkcow's calf blues
TTITLE8=kind hearted woman blues
TTITLE9=come on in my kitchen
TTITLE10=if i had possession of judement day
TTITLE11=love in vain
TTITLE12=32-30 blues
TTITLE13=hellbound on my tail
TTITLE14=blue eyes blue
TTITLE15=change the world
TTITLE16=my father's eyes
TTITLE17=tears in heaven
TTITLE18=before ypu accuse me
TTITLE19=forever man
EXTD=
EXTT0=
EXTT1=
EXTT2=
EXTT3=
EXTT4=
EXTT5=
EXTT6=
EXTT7=
EXTT8=
EXTT9=
EXTT10=
EXTT11=
EXTT12=
EXTT13=
EXTT14=
EXTT15=
EXTT16=
EXTT17=
EXTT18=
EXTT19=
PLAYORDER=
